<svg xmlns="http://www.w3.org/2000/svg" width="1300" height="400" viewBox="0 0 1300 400">
  <metadata><?xpacket begin="﻿" id="W5M0MpCehiHzreSzNTczkc9d"?>
<x:xmpmeta xmlns:x="adobe:ns:meta/" x:xmptk="Adobe XMP Core 5.6-c140 79.160451, 2017/05/06-01:08:21        ">
   <rdf:RDF xmlns:rdf="http://www.w3.org/1999/02/22-rdf-syntax-ns#">
      <rdf:Description rdf:about=""/>
   </rdf:RDF>
</x:xmpmeta>
                                                                                                    
                                                                                                    
                                                                                                    
                                                                                                    
                                                                                                    
                                                                                                    
                                                                                                    
                                                                                                    
                                                                                                    
                                                                                                    
                                                                                                    
                                                                                                    
                                                                                                    
                                                                                                    
                                                                                                    
                                                                                                    
                                                                                                    
                                                                                                    
                                                                                                    
                                                                                                    
                           
<?xpacket end="w"?></metadata>
<defs>
    <style>
      .cls-1 {
        fill-rule: evenodd;
      }
    </style>
  </defs>
  <path class="cls-1" d="M1303.4,256.286a47.02,47.02,0,0,1,1.27-15.58c14.87-61.477,140.13-136.028,201.3-137.706,50.53,10.609,10.95,16.424,10.95,16.424l-21.9,2.737s-142.68,45.691-164.25,112.227c41.91-29.577,70.77-70.817,79.39-60.219,9.25,8.181-24,33.825-71.17,73.905,168.09-75.99,156.03-125.913,156.03-125.913l21.9-2.737s1.94,51.242-82.12,101.278c84.74-3.87,131.29-1.988,164.25,10.949-1.27-22.134,11.99,2.41,10.95,8.212-20.09,64.389-131.4,68.431-131.4,68.431l-5.48-19.161s76.63-5.463,112.24-43.8c-60.42-11.928-214.39-7.1-213.52,13.686,46.77,1.884,100.15-9.643,109.5,2.738-9.46,13.153-79.09,7.28-106.77,10.949,56.1,20.951,98.55,16.423,98.55,16.423l5.48,19.161s134.05,53.347,98.55,98.541a26.988,26.988,0,0,1-8.21-8.212s-7.68,13.87-62.97,10.949c-100.88-25.14-197.1-134.125-197.1-134.125l73.92,24.635s72.24,30.992,62.96,38.322-65.86-27.075-79.39-30.11c4,11.782,128.45,98.717,194.36,76.643-89.63-76.475-177.93-84.855-177.93-84.855l-73.92-24.635c-211.11-15.935-224.95-14.907-451.688,2.737,26.971,14.756,47.588,41.907,46.538,54.745-19.386.889-32.144-34.887-68.438-52.008-191.46,15.738-331.877,43.032-384.671,48.2-7.879-1.268-14.151-2.357-12.269-12.614,247.521-43.132,505.694-66.061,651.528-65.694-0.02-12.541,69.88-42.634,76.65-35.585,13.43,12.494-32.28,25.019-43.8,32.847C1133.63,255.524,1228.86,243.7,1303.4,256.286Z"/>
</svg>
